<?xml version="1.0" encoding="UTF-8" standalone="no"?>
<!DOCTYPE svg PUBLIC "-//W3C//DTD SVG 1.1//EN" "http://www.w3.org/Graphics/SVG/1.1/DTD/svg11.dtd">
<svg width="100%" height="100%" viewBox="0 0 800 278" version="1.1" xmlns="http://www.w3.org/2000/svg" xmlns:xlink="http://www.w3.org/1999/xlink" xml:space="preserve" xmlns:serif="http://www.serif.com/" style="fill-rule:evenodd;clip-rule:evenodd;stroke-linejoin:round;stroke-miterlimit:2;">
    <g id="Horizontal" transform="matrix(2.00992,1.1244e-31,1.1244e-31,2.00992,353.117,-399.886)">
        <g transform="matrix(2.92558e-16,1.03276,-1.03276,2.92558e-16,484.115,99.0637)">
            <g transform="matrix(1,0,0,0.919082,0,190.029)">
                <path d="M201.133,74.589C206.261,69.462 213.689,68.118 220.065,71.165C226.442,74.211 230.559,81.071 230.559,88.648C230.559,120.827 230.559,163.102 230.559,187.238C230.559,192.302 228.71,197.159 225.419,200.74C222.128,204.321 217.664,206.333 213.009,206.333L114.42,206.333C107.187,206.333 100.695,201.504 98.068,194.172C95.442,186.839 97.219,178.504 102.544,173.179C131.552,144.171 173.289,102.433 201.133,74.589Z" style="fill:rgb(40,111,195);"/>
            </g>
            <g transform="matrix(-1,1.47911e-31,0,0.919082,327.343,190.029)">
                <path d="M201.133,74.589C206.261,69.462 213.689,68.118 220.065,71.165C226.442,74.211 230.559,81.071 230.559,88.648C230.559,120.827 230.559,163.102 230.559,187.238C230.559,192.302 228.71,197.159 225.419,200.74C222.128,204.321 217.664,206.333 213.009,206.333L114.42,206.333C107.187,206.333 100.695,201.504 98.068,194.172C95.442,186.839 97.219,178.504 102.544,173.179C131.552,144.171 173.289,102.433 201.133,74.589Z" style="fill:rgb(43,122,217);"/>
            </g>
        </g>
        <g transform="matrix(1.09092,-5.73724e-32,-4.69029e-32,0.983324,-264.258,134.285)">
            <g transform="matrix(1,0,0,1,76.1883,0)">
                <path d="M134.628,75.857C137.721,69.67 143.597,65.832 149.975,65.832C156.352,65.832 162.228,69.67 165.321,75.857C179.941,105.097 201.784,148.783 216.102,177.418C219.117,183.449 219.032,190.799 215.878,196.742C212.724,202.684 206.971,206.333 200.755,206.333L69.39,206.333C69.39,206.333 111.247,122.619 134.628,75.857Z" style="fill:rgb(40,111,195);"/>
            </g>
            <path d="M134.628,75.857C137.721,69.67 143.597,65.832 149.975,65.832C156.352,65.832 162.228,69.67 165.321,75.857C179.941,105.097 201.784,148.783 216.102,177.418C219.117,183.449 219.032,190.799 215.878,196.742C212.724,202.684 206.971,206.333 200.755,206.333L99.194,206.333C92.978,206.333 87.226,202.684 84.072,196.742C80.917,190.799 80.832,183.449 83.848,177.418C98.165,148.783 120.008,105.097 134.628,75.857Z" style="fill:rgb(43,122,217);"/>
        </g>
    </g>
    <g id="Horizontal1" serif:id="Horizontal" transform="matrix(2.00992,1.1244e-31,1.1244e-31,2.00992,353.117,-399.886)">
        <g transform="matrix(2.92558e-16,1.03276,-1.03276,2.92558e-16,484.115,99.0637)">
            <g transform="matrix(2.99229e-16,-1.05631,0.952129,2.69716e-16,34.1038,644.153)">
                <path d="M134.628,75.857C137.721,69.67 143.597,65.832 149.975,65.832C156.352,65.832 162.228,69.67 165.321,75.857C179.941,105.097 201.784,148.783 216.102,177.418C219.117,183.449 219.032,190.799 215.878,196.742C212.724,202.684 206.971,206.333 200.755,206.333L69.39,206.333C69.39,206.333 111.247,122.619 134.628,75.857Z" style="fill:rgb(86,43,217);"/>
            </g>
            <g transform="matrix(1,0,0,0.919082,0,190.029)">
                <path d="M201.133,74.589C206.261,69.462 213.689,68.118 220.065,71.165C226.442,74.211 230.559,81.071 230.559,88.648C230.559,120.827 230.559,163.102 230.559,187.238C230.559,192.302 228.71,197.159 225.419,200.74C222.128,204.321 217.664,206.333 213.009,206.333L114.42,206.333C107.187,206.333 100.695,201.504 98.068,194.172C95.442,186.839 97.219,178.504 102.544,173.179C131.552,144.171 173.289,102.433 201.133,74.589Z" style="fill:rgb(86,43,217);"/>
            </g>
        </g>
        <g transform="matrix(1.09092,-5.73724e-32,-4.69029e-32,0.983324,-264.258,134.285)">
            <g transform="matrix(-2.68175e-16,-1.05028,-0.870084,2.73445e-16,506.102,307.983)">
                <path d="M201.133,74.589C206.261,69.462 213.689,68.118 220.065,71.165C226.442,74.211 230.559,81.071 230.559,88.648C230.559,120.827 230.559,163.102 230.559,187.238C230.559,192.302 228.71,197.159 225.419,200.74C222.128,204.321 217.664,206.333 213.009,206.333L114.42,206.333C107.187,206.333 100.695,201.504 98.068,194.172C95.442,186.839 97.219,178.504 102.544,173.179C131.552,144.171 173.289,102.433 201.133,74.589Z" style="fill:rgb(106,43,217);"/>
            </g>
            <path d="M134.628,75.857C137.721,69.67 143.597,65.832 149.975,65.832C156.352,65.832 162.228,69.67 165.321,75.857C179.941,105.097 201.784,148.783 216.102,177.418C219.117,183.449 219.032,190.799 215.878,196.742C212.724,202.684 206.971,206.333 200.755,206.333L99.194,206.333C92.978,206.333 87.226,202.684 84.072,196.742C80.917,190.799 80.832,183.449 83.848,177.418C98.165,148.783 120.008,105.097 134.628,75.857Z" style="fill:rgb(106,43,217);"/>
        </g>
    </g>
</svg>
